<?xml version="1.0" encoding="UTF-8"?>
<svg width="12px" height="12px" viewBox="0 0 12 12" version="1.1" xmlns="http://www.w3.org/2000/svg" xmlns:xlink="http://www.w3.org/1999/xlink">
    <!-- Generator: Sketch 53.2 (72643) - https://sketchapp.com -->
    <title>Group 2</title>
    <desc>Created with Sketch.</desc>
    <g id="Import-Wallet" stroke="none" stroke-width="1" fill="none" fill-rule="evenodd">
        <g id="Import-Ledger" transform="translate(-709.000000, -525.000000)" fill="#FF9B4F">
            <g id="Group-2" transform="translate(709.000000, 525.000000)">
                <polygon id="Fill-1" points="2.95890411 4.44180822 4.44180822 4.44180822 4.44180822 2.95890411 2.95890411 2.95890411"></polygon>
                <polygon id="Fill-2" points="4.43835616 4.44180822 5.92126027 4.44180822 5.92126027 2.95890411 4.43835616 2.95890411"></polygon>
                <polygon id="Fill-3" points="5.91780822 4.44180822 7.40071233 4.44180822 7.40071233 2.95890411 5.91780822 2.95890411"></polygon>
                <polygon id="Fill-4" points="7.39726027 4.44180822 8.88 4.44180822 8.88 2.95890411 7.39726027 2.95890411"></polygon>
                <polygon id="Fill-5" points="8.87671233 4.44180822 10.3596164 4.44180822 10.3596164 2.95890411 8.87671233 2.95890411"></polygon>
                <polygon id="Fill-6" points="10.3561644 4.44180822 11.8389041 4.44180822 11.8389041 2.95890411 10.3561644 2.95890411"></polygon>
                <polygon id="Fill-7" points="1.47945205 4.44180822 2.96219178 4.44180822 2.96219178 2.95890411 1.47945205 2.95890411"></polygon>
                <polygon id="Fill-8" points="0 4.44180822 1.48290411 4.44180822 1.48290411 2.95890411 0 2.95890411"></polygon>
                <polygon id="Fill-9" points="2.95890411 2.96219178 4.44180822 2.96219178 4.44180822 1.47945205 2.95890411 1.47945205"></polygon>
                <polygon id="Fill-10" points="2.95890411 1.48273973 4.44164384 1.48273973 4.44164384 0 2.95890411 0"></polygon>
                <polygon id="Fill-11" points="2.95890411 5.92109589 4.44180822 5.92109589 4.44180822 4.43835616 2.95890411 4.43835616"></polygon>
                <polygon id="Fill-12" points="2.95890411 7.40071233 4.44180822 7.40071233 4.44180822 5.91780822 2.95890411 5.91780822"></polygon>
                <polygon id="Fill-13" points="2.95890411 8.88016438 4.44180822 8.88016438 4.44180822 7.39726027 2.95890411 7.39726027"></polygon>
                <polygon id="Fill-14" points="2.95890411 10.3596164 4.44180822 10.3596164 4.44180822 8.87671233 2.95890411 8.87671233"></polygon>
                <polygon id="Fill-15" points="4.43835616 11.8389041 5.92126027 11.8389041 5.92126027 10.3561644 4.43835616 10.3561644"></polygon>
                <polygon id="Fill-16" points="5.91780822 11.8389041 7.40054795 11.8389041 7.40054795 10.3561644 5.91780822 10.3561644"></polygon>
                <polygon id="Fill-17" points="7.39726027 11.8389041 8.88016438 11.8389041 8.88016438 10.3561644 7.39726027 10.3561644"></polygon>
                <polygon id="Fill-18" points="8.87671233 11.8389041 10.3594521 11.8389041 10.3594521 10.3561644 8.87671233 10.3561644"></polygon>
                <polygon id="Fill-19" points="10.3561644 10.3596164 11.8390685 10.3596164 11.8390685 8.87671233 10.3561644 8.87671233"></polygon>
            </g>
        </g>
    </g>
</svg>