<?xml version="1.0" encoding="UTF-8"?>
<svg width="20px" height="23px" viewBox="0 0 20 23" version="1.1" xmlns="http://www.w3.org/2000/svg" xmlns:xlink="http://www.w3.org/1999/xlink">
    <!-- Generator: Sketch 53.2 (72643) - https://sketchapp.com -->
    <title>Fill 1</title>
    <desc>Created with Sketch.</desc>
    <g id="Page-1" stroke="none" stroke-width="1" fill="none" fill-rule="evenodd">
        <g id="Exchange-Dark" transform="translate(-20.000000, -448.000000)" fill="#999">
            <path d="M27.7777778,461.333333 L35.5555556,461.333333 C36.17,461.333333 36.6666667,461.83 36.6666667,462.444444 C36.6666667,463.058889 36.17,463.555556 35.5555556,463.555556 L27.7777778,463.555556 C27.1633333,463.555556 26.6666667,463.058889 26.6666667,462.444444 C26.6666667,461.83 27.1633333,461.333333 27.7777778,461.333333 L27.7777778,461.333333 Z M27.7777778,458 L35.5555556,458 C36.17,458 36.6666667,458.496667 36.6666667,459.111111 C36.6666667,459.725556 36.17,460.222222 35.5555556,460.222222 L27.7777778,460.222222 C27.1633333,460.222222 26.6666667,459.725556 26.6666667,459.111111 C26.6666667,458.496667 27.1633333,458 27.7777778,458 L27.7777778,458 Z M26.6666667,450.222222 C26.0522222,450.222222 25.5555556,450.718889 25.5555556,451.333333 L25.5555556,463.555556 C25.5555556,464.17 26.0522222,464.666667 26.6666667,464.666667 L36.6666667,464.666667 C37.2811111,464.666667 37.7777778,464.17 37.7777778,463.555556 L37.7777778,454.897778 C37.7777778,454.61 37.6655556,454.333333 37.4666667,454.126667 L34.0222222,450.562222 C33.8133333,450.344444 33.5255556,450.222222 33.2233333,450.222222 L26.6666667,450.222222 Z M32.7811111,451.428889 L36.5711111,455.218889 C36.6977778,455.346667 36.6977778,455.554444 36.5711111,455.682222 C36.5088889,455.743333 36.4255556,455.777778 36.34,455.777778 L32.5488889,455.777778 C32.3688889,455.777778 32.2222222,455.631111 32.2222222,455.451111 L32.2222222,451.66 C32.2222222,451.48 32.3688889,451.333333 32.5488889,451.333333 C32.6355556,451.333333 32.7188889,451.367778 32.7811111,451.428889 L32.7811111,451.428889 Z M34.4444444,466.888889 L26.6666667,466.888889 C24.8255556,466.888889 23.3333333,465.396667 23.3333333,463.555556 L23.3333333,453.555556 C22.7188889,453.555556 22.2222222,454.052222 22.2222222,454.666667 L22.2222222,466.888889 C22.2222222,467.503333 22.7188889,468 23.3333333,468 L33.3333333,468 C33.9477778,468 34.4444444,467.503333 34.4444444,466.888889 L34.4444444,466.888889 Z M36.6666667,466.888889 C36.6666667,468.73 35.1744444,470.222222 33.3333333,470.222222 L23.3333333,470.222222 C21.4922222,470.222222 20,468.73 20,466.888889 L20,454.666667 C20,452.825556 21.4922222,451.333333 23.3333333,451.333333 C23.3333333,449.492222 24.8255556,448 26.6666667,448 L33.2233333,448 C34.1277778,448 34.9933333,448.366667 35.6211111,449.017778 L39.0644444,452.582222 C39.6644444,453.204444 40,454.034444 40,454.897778 L40,463.555556 C40,465.396667 38.5077778,466.888889 36.6666667,466.888889 L36.6666667,466.888889 Z" id="Fill-1"></path>
        </g>
    </g>
</svg>