<?xml version="1.0" encoding="UTF-8"?>
<svg width="13px" height="16px" viewBox="0 0 13 16" version="1.1" xmlns="http://www.w3.org/2000/svg" xmlns:xlink="http://www.w3.org/1999/xlink">
    <!-- Generator: Sketch 53.2 (72643) - https://sketchapp.com -->
    <title>Fill 1</title>
    <desc>Created with Sketch.</desc>
    <g id="Main-Page" stroke="none" stroke-width="1" fill="none" fill-rule="evenodd">
        <g id="Portfolio-Dark" transform="translate(-169.000000, -119.000000)" fill="#68718C">
            <path d="M175.5,125.56225 L175.5,123.19375 L170.061,127 L175.5,130.807 L175.5,128.43775 L174.33,127.61875 C174.11775,127.474 174,127.23925 174,127 C174,126.8545 174.0465,126.706 174.135,126.577 C174.1875,126.49975 174.2535,126.433 174.33,126.38125 L175.5,125.56225 Z M182.25,124.75 C181.83525,124.75 181.5,124.41475 181.5,124 L181.5,123.19375 L176.061,127 L181.5,130.807 L181.5,130 C181.5,129.58525 181.83525,129.25 182.25,129.25 C182.66475,129.25 183,129.58525 183,130 L183,132.25 C183,132.66475 182.66475,133 182.25,133 C182.094,133 181.941,132.94825 181.81425,132.8575 L177,129.48775 L177,132.25 C177,132.66475 176.66475,133 176.25,133 C176.094,133 175.941,132.94825 175.81425,132.8575 L168.33,127.61875 C168.11775,127.474 168,127.23925 168,127 C168,126.8545 168.0465,126.706 168.135,126.577 C168.1875,126.49975 168.2535,126.433 168.33,126.38125 L175.81425,121.1425 C175.94625,121.048 176.09775,121 176.2485,121 C176.48325,121 176.7135,121.1095 176.85975,121.315 C176.95125,121.4425 177,121.594 177,121.75 L177,124.51225 L181.81425,121.1425 C181.94625,121.048 182.09775,121 182.2485,121 C182.48325,121 182.7135,121.1095 182.85975,121.315 C182.95125,121.4425 183,121.594 183,121.75 L183,124 C183,124.41475 182.66475,124.75 182.25,124.75 L182.25,124.75 Z M182.25,125.5 C182.66475,125.5 183,125.83525 183,126.25 L183,127.75 C183,128.16475 182.66475,128.5 182.25,128.5 C181.83525,128.5 181.5,128.16475 181.5,127.75 L181.5,126.25 C181.5,125.83525 181.83525,125.5 182.25,125.5 L182.25,125.5 Z" id="Fill-1" transform="translate(175.500000, 127.000000) rotate(90.000000) translate(-175.500000, -127.000000) "></path>
        </g>
    </g>
</svg>