<?xml version="1.0" encoding="UTF-8"?>
<svg width="20px" height="20px" viewBox="0 0 20 20" version="1.1" xmlns="http://www.w3.org/2000/svg" xmlns:xlink="http://www.w3.org/1999/xlink">
    <!-- Generator: Sketch 53.2 (72643) - https://sketchapp.com -->
    <title>Group 4</title>
    <desc>Created with Sketch.</desc>
    <defs>
        <polygon id="path-1" points="0 0.11721875 11.3177674 0.11721875 11.3177674 11.5234687 0 11.5234687"></polygon>
    </defs>
    <g id="Page-1" stroke="none" stroke-width="1" fill="none" fill-rule="evenodd">
        <g id="Exchange-Dark" transform="translate(-20.000000, -230.000000)">
            <g id="Group-4" transform="translate(20.000000, 230.000000)">
                <g id="Group-3">
                    <mask id="mask-2" fill="white">
                        <use xlink:href="#path-1"></use>
                    </mask>
                    <g id="Clip-2"></g>
                    <path d="M11.3138915,0.97534375 C11.3135814,0.9714375 11.3135814,0.967375 11.3132713,0.96346875 C11.3092403,0.92128125 11.3017984,0.88034375 11.2923411,0.84003125 C11.2906357,0.83221875 11.2884651,0.8245625 11.2864496,0.81675 C11.2757519,0.7755 11.2630388,0.7351875 11.2470698,0.69628125 C11.2469147,0.696125 11.2469147,0.696125 11.2469147,0.69596875 L11.2469147,0.6958125 C11.2306357,0.656125 11.2109457,0.61815625 11.1895504,0.5814375 C11.1852093,0.5739375 11.1808682,0.56675 11.1763721,0.5595625 C11.1546667,0.52409375 11.1312558,0.489875 11.1048992,0.45784375 C11.1045891,0.45753125 11.1042791,0.45721875 11.103969,0.45690625 C11.0785426,0.4258125 11.0506357,0.397375 11.0214884,0.369875 C11.0143566,0.36315625 11.0072248,0.35675 11.000093,0.35034375 C10.9697054,0.32346875 10.9383876,0.29815625 10.9048992,0.2755 C10.903969,0.27503125 10.9030388,0.2745625 10.9021085,0.27378125 C10.8690853,0.25175 10.8340465,0.23221875 10.7983876,0.2145625 C10.7909457,0.2108125 10.7836589,0.20721875 10.7762171,0.2039375 C10.7025736,0.1695625 10.623814,0.14503125 10.5411783,0.131125 C10.5317209,0.12940625 10.5222636,0.12784375 10.5126512,0.12659375 C10.4715659,0.121125 10.4301705,0.11721875 10.3875349,0.11721875 L5.42629457,0.11721875 C4.91265116,0.11721875 4.49606202,0.53690625 4.49606202,1.05471875 C4.49606202,1.572375 4.91265116,1.99221875 5.42629457,1.99221875 L8.14179845,1.99221875 L0.272496124,9.92315625 C-0.0909147287,10.2890938 -0.0909147287,10.8826875 0.272496124,11.2487813 C0.454046512,11.4319063 0.692186047,11.5234687 0.930170543,11.5234687 C1.16831008,11.5234687 1.40644961,11.4319063 1.588,11.2487813 L9.45730233,3.31784375 L9.45730233,5.89846875 C9.45730233,6.416125 9.87389147,6.83596875 10.3875349,6.83596875 C10.9013333,6.83596875 11.3177674,6.416125 11.3177674,5.89846875 L11.3177674,1.05471875 C11.3177674,1.02784375 11.316062,1.00159375 11.3138915,0.97534375" id="Fill-1" fill="#FFFFFF" mask="url(#mask-2)"></path>
                </g>
                <path d="M18.4496124,17.890625 C18.4496124,18.1914062 18.2054264,18.4375 17.9069767,18.4375 C17.6085271,18.4375 17.3643411,18.1914062 17.3643411,17.890625 L17.3643411,8.203125 C17.3643411,7.90234375 17.6085271,7.65625 17.9069767,7.65625 C18.2054264,7.65625 18.4496124,7.90234375 18.4496124,8.203125 L18.4496124,17.890625 Z M17.9069767,5.9375 C16.7510078,5.9375 15.8139535,6.881875 15.8139535,8.046875 L15.8139535,17.890625 C15.8139535,19.055625 16.7510078,20 17.9069767,20 C19.0629457,20 20,19.055625 20,17.890625 L20,8.046875 C20,6.881875 19.0629457,5.9375 17.9069767,5.9375 L17.9069767,5.9375 Z" id="Fill-4" fill="#FFFFFF"></path>
                <path d="M10.5426357,17.8515625 C10.5426357,18.1523438 10.2984496,18.3984375 10,18.3984375 C9.70155039,18.3984375 9.45736434,18.1523438 9.45736434,17.8515625 L9.45736434,12.0703125 C9.45736434,11.7695312 9.70155039,11.5234375 10,11.5234375 C10.2984496,11.5234375 10.5426357,11.7695312 10.5426357,12.0703125 L10.5426357,17.8515625 Z M10,10 C8.84403101,10 7.90697674,10.944375 7.90697674,12.109375 L7.90697674,17.890625 C7.90697674,19.055625 8.84403101,20 10,20 C11.155969,20 12.0930233,19.055625 12.0930233,17.890625 L12.0930233,12.109375 C12.0930233,10.944375 11.155969,10 10,10 L10,10 Z" id="Fill-6" fill="#FFFFFF"></path>
                <path d="M2.63565891,17.890625 C2.63565891,18.1914062 2.39147287,18.4375 2.09302326,18.4375 C1.79457364,18.4375 1.5503876,18.1914062 1.5503876,17.890625 L1.5503876,15.859375 C1.5503876,15.5585938 1.79457364,15.3125 2.09302326,15.3125 C2.39147287,15.3125 2.63565891,15.5585938 2.63565891,15.859375 L2.63565891,17.890625 Z M2.09302326,13.90625 C0.937054264,13.90625 0,14.850625 0,16.015625 L0,17.890625 C0,19.055625 0.937054264,20 2.09302326,20 C3.24899225,20 4.18604651,19.055625 4.18604651,17.890625 L4.18604651,16.015625 C4.18604651,14.850625 3.24899225,13.90625 2.09302326,13.90625 L2.09302326,13.90625 Z" id="Fill-8" fill="#FFFFFF"></path>
            </g>
        </g>
    </g>
</svg>