<?xml version="1.0"?>
<svg xmlns="http://www.w3.org/2000/svg" viewBox="0 0 24 24" fill="none" class="icon-eye" style="color:#6e7793"><path d="M13.03 15.652l1.712 1.71c-.73.219-1.481.329-2.242.329a7.92 7.92 0 01-5.576-2.299L3 11.505l2.913-2.948 2.393 2.378c-.02.18-.02.35 0 .53a4.23 4.23 0 004.194 4.227c.18 0 .35-.01.53-.04zM22 11.505l-3.934-3.997A7.842 7.842 0 0012.5 5.239c-.76 0-1.511.11-2.242.33l1.712 1.699c.18-.01.35-.01.53 0a4.232 4.232 0 014.235 4.227c0 .78-.21 1.539-.621 2.199L6.434 4 5.022 5.42l11.292 11.272.71.71L18.638 19l1.411-1.41-2.102-2.088L22 11.505z" fill="currentColor"></path></svg>