<?xml version="1.0"?>
<svg xmlns="http://www.w3.org/2000/svg" viewBox="0 0 24 24" fill="none" class="icon-eye" style="color:#6e7793"><path d="M18.076 7.395c-3.083-3.193-8.059-3.193-11.142 0L3 11.44l3.934 4.16c3.073 3.193 8.049 3.203 11.132.01l.01-.01L22 11.44l-3.924-4.045zm-1.422 6.697a5.724 5.724 0 01-8.308 0L5.833 11.44l2.513-2.579c2.302-2.371 6.006-2.371 8.308 0l2.513 2.58-2.513 2.651z" fill="currentColor"></path><path d="M14.732 11.44c.02 1.28-.96 2.34-2.192 2.361-1.231.02-2.252-.998-2.272-2.278-.02-1.279.96-2.34 2.192-2.36h.04v2.277h2.232z" fill="currentColor"></path></svg>