<?xml version="1.0" encoding="UTF-8"?>
<svg width="10px" height="12px" viewBox="0 0 10 12" version="1.1" xmlns="http://www.w3.org/2000/svg" xmlns:xlink="http://www.w3.org/1999/xlink">
    <!-- Generator: Sketch 53.2 (72643) - https://sketchapp.com -->
    <title>Group 5</title>
    <desc>Created with Sketch.</desc>
    <g id="Page-1" stroke="none" stroke-width="1" fill="none" fill-rule="evenodd">
        <g id="Exchange-Dark" transform="translate(-1129.000000, -91.000000)" fill="#FF9A4D">
            <g id="Group-5" transform="translate(1134.000000, 97.000000) rotate(-270.000000) translate(-1134.000000, -97.000000) translate(1128.000000, 92.000000)">
                <path d="M6.66666667,0.666833333 L6.66666667,8.66683333 C6.66666667,9.0355 6.36866667,9.3335 6,9.3335 C5.632,9.3335 5.33333333,9.0355 5.33333333,8.66683333 L5.33333333,0.666833333 C5.33333333,0.298166667 5.632,0.000166666667 6,0.000166666667 C6.36866667,0.000166666667 6.66666667,0.298166667 6.66666667,0.666833333 L6.66666667,0.666833333 Z" id="Fill-1"></path>
                <path d="M8.80294622,4.48828878 L11.3987795,4.48828878 C11.5430942,4.48828878 11.6602191,4.59916168 11.6602191,4.73632658 C11.6602191,4.87349148 11.5430942,4.98436437 11.3987795,4.98436437 L8.80294622,4.98436437 L10.0144571,6.07002581 C10.1172028,6.16204783 10.1172028,6.31161462 10.0144571,6.40363664 C9.91171136,6.49565866 9.74517436,6.49565866 9.64242862,6.40363664 L8.15431469,5.06993741 C7.94856177,4.88564533 7.94856177,4.58700783 8.15431469,4.40271574 L9.64242862,3.06901652 C9.74517436,2.97699449 9.91171136,2.97699449 10.0144571,3.06901652 C10.1172028,3.16103854 10.1172028,3.31060533 10.0144571,3.40262735 L8.80294622,4.48828878 Z" id="Fill-3"></path>
                <path d="M0.802946221,4.48828878 L3.39877952,4.48828878 C3.54309415,4.48828878 3.66021907,4.59916168 3.66021907,4.73632658 C3.66021907,4.87349148 3.54309415,4.98436437 3.39877952,4.98436437 L0.802946221,4.98436437 L2.0144571,6.07002581 C2.11720284,6.16204783 2.11720284,6.31161462 2.0144571,6.40363664 C1.91171136,6.49565866 1.74517436,6.49565866 1.64242862,6.40363664 L0.154314695,5.06993741 C-0.0514382316,4.88564533 -0.0514382316,4.58700783 0.154314695,4.40271574 L1.64242862,3.06901652 C1.74517436,2.97699449 1.91171136,2.97699449 2.0144571,3.06901652 C2.11720284,3.16103854 2.11720284,3.31060533 2.0144571,3.40262735 L0.802946221,4.48828878 Z" id="Fill-3-Copy" transform="translate(1.830110, 4.736327) scale(-1, 1) translate(-1.830110, -4.736327) "></path>
            </g>
        </g>
    </g>
</svg>