<?xml version="1.0" encoding="UTF-8"?>
<svg width="9px" height="10px" viewBox="0 0 9 10" version="1.1" xmlns="http://www.w3.org/2000/svg" xmlns:xlink="http://www.w3.org/1999/xlink">
    <!-- Generator: Sketch 53.2 (72643) - https://sketchapp.com -->
    <title>Fill 1 Copy</title>
    <desc>Created with Sketch.</desc>
    <g id="Page-1" stroke="none" stroke-width="1" fill="none" fill-rule="evenodd">
        <g id="Exchange-Dark" transform="translate(-1152.000000, -92.000000)" fill="#FF9A4D">
            <path d="M1155.75016,98.830625 L1155.75016,92.625 C1155.75016,92.28 1156.02953,92 1156.37516,92 C1156.72078,92 1157.00016,92.28 1157.00016,92.625 L1157.00016,98.830625 L1159.73578,95.934375 C1159.96766,95.68875 1160.34453,95.68875 1160.57641,95.934375 C1160.80828,96.18 1160.80828,96.578125 1160.57641,96.82375 L1157.21578,100.38125 C1156.75141,100.873125 1155.99891,100.873125 1155.53453,100.38125 L1152.17391,96.82375 C1151.94203,96.578125 1151.94203,96.18 1152.17391,95.934375 C1152.40578,95.68875 1152.78266,95.68875 1153.01453,95.934375 L1155.75016,98.830625 Z M1152.62516,102 C1152.27953,102 1152.00016,101.720625 1152.00016,101.375 C1152.00016,101.03 1152.27953,100.75 1152.62516,100.75 L1160.12516,100.75 C1160.47078,100.75 1160.75016,101.03 1160.75016,101.375 C1160.75016,101.720625 1160.47078,102 1160.12516,102 L1152.62516,102 Z" id="Fill-1-Copy" transform="translate(1156.375156, 97.000000) scale(1, -1) translate(-1156.375156, -97.000000) "></path>
        </g>
    </g>
</svg>