<?xml version="1.0" encoding="UTF-8"?>
<svg width="9px" height="10px" viewBox="0 0 9 10" version="1.1" xmlns="http://www.w3.org/2000/svg" xmlns:xlink="http://www.w3.org/1999/xlink">
    <!-- Generator: Sketch 53.2 (72643) - https://sketchapp.com -->
    <title>Fill 1</title>
    <desc>Created with Sketch.</desc>
    <g id="Page-1" stroke="none" stroke-width="1" fill="none" fill-rule="evenodd">
        <g id="Exchange-Dark" transform="translate(-1107.000000, -92.000000)" fill="#6E7793">
            <path d="M1110.75016,98.830625 L1110.75016,92.625 C1110.75016,92.28 1111.02953,92 1111.37516,92 C1111.72078,92 1112.00016,92.28 1112.00016,92.625 L1112.00016,98.830625 L1114.73578,95.934375 C1114.96766,95.68875 1115.34453,95.68875 1115.57641,95.934375 C1115.80828,96.18 1115.80828,96.578125 1115.57641,96.82375 L1112.21578,100.38125 C1111.75141,100.873125 1110.99891,100.873125 1110.53453,100.38125 L1107.17391,96.82375 C1106.94203,96.578125 1106.94203,96.18 1107.17391,95.934375 C1107.40578,95.68875 1107.78266,95.68875 1108.01453,95.934375 L1110.75016,98.830625 Z M1107.62516,102 C1107.27953,102 1107.00016,101.720625 1107.00016,101.375 C1107.00016,101.03 1107.27953,100.75 1107.62516,100.75 L1115.12516,100.75 C1115.47078,100.75 1115.75016,101.03 1115.75016,101.375 C1115.75016,101.720625 1115.47078,102 1115.12516,102 L1107.62516,102 Z" id="Fill-1"></path>
        </g>
    </g>
</svg>