<?xml version="1.0" encoding="UTF-8"?>
<svg width="20px" height="20px" viewBox="0 0 20 20" version="1.1" xmlns="http://www.w3.org/2000/svg" xmlns:xlink="http://www.w3.org/1999/xlink">
    <!-- Generator: Sketch 53.2 (72643) - https://sketchapp.com -->
    <title>Fill 1</title>
    <desc>Created with Sketch.</desc>
    <g id="Page-1" stroke="none" stroke-width="1" fill="none" fill-rule="evenodd">
        <g id="Exchange-Dark" transform="translate(-1325.000000, -24.000000)" fill="#fff">
            <path d="M1329.243,36.198 C1329.24,36.186 1329.239,36.174 1329.239,36.162 C1329.239,36.072 1329.311,36 1329.401,36 L1331.045,36 C1331.166,36 1331.272,36.08 1331.306,36.197 C1331.764,37.806 1332.718,39.218 1334,40.246 L1334,36.4 C1334,36.178 1334.179,36 1334.4,36 L1335.599,36 C1335.821,36 1336,36.178 1336,36.4 L1336,40.247 C1337.282,39.219 1338.232,37.808 1338.692,36.203 C1338.726,36.083 1338.837,36 1338.962,36 L1340.593,36 C1340.604,36 1340.617,36.001 1340.629,36.004 C1340.72,36.024 1340.776,36.114 1340.756,36.204 C1340.276,38.33 1339.117,40.216 1337.5,41.6 C1339.997,40.779 1341.966,38.76 1342.694,36.199 C1342.728,36.081 1342.836,36 1342.958,36 L1344.599,36 C1344.611,36 1344.623,36.001 1344.635,36.004 C1344.722,36.023 1344.777,36.11 1344.758,36.198 C1343.751,40.693 1339.735,44 1335,44 C1330.266,44 1326.252,40.695 1325.243,36.203 C1325.24,36.19 1325.239,36.178 1325.239,36.166 C1325.239,36.074 1325.313,36 1325.405,36 L1327.035,36 C1327.161,36 1327.272,36.084 1327.306,36.205 C1328.037,38.762 1330.005,40.78 1332.501,41.6 C1330.884,40.216 1329.722,38.329 1329.243,36.198 M1329.243,31.802 C1329.722,29.671 1330.884,27.784 1332.501,26.399 C1330.005,27.219 1328.037,29.237 1327.306,31.795 C1327.272,31.916 1327.161,32 1327.035,32 L1325.405,32 C1325.313,32 1325.239,31.926 1325.239,31.834 C1325.239,31.821 1325.24,31.809 1325.243,31.797 C1326.252,27.304 1330.266,24 1335,24 C1339.735,24 1343.751,27.306 1344.758,31.802 C1344.777,31.889 1344.722,31.976 1344.635,31.996 C1344.623,31.999 1344.611,32 1344.599,32 L1342.958,32 C1342.836,32 1342.728,31.919 1342.694,31.801 C1341.966,29.24 1339.997,27.22 1337.5,26.399 C1339.117,27.784 1340.276,29.67 1340.756,31.796 C1340.776,31.886 1340.72,31.975 1340.629,31.996 C1340.617,31.999 1340.604,32 1340.593,32 L1338.962,32 C1338.837,32 1338.726,31.917 1338.692,31.797 C1338.232,30.191 1337.282,28.781 1336,27.754 L1336,31.599 C1336,31.821 1335.821,32 1335.599,32 L1334.4,32 C1334.179,32 1334,31.821 1334,31.599 L1334,27.754 C1332.718,28.782 1331.764,30.193 1331.306,31.802 C1331.272,31.92 1331.166,32 1331.045,32 L1329.401,32 C1329.311,32 1329.239,31.927 1329.239,31.838 C1329.239,31.826 1329.24,31.813 1329.243,31.802 M1325.031,34.799 C1325.011,34.535 1325,34.268 1325,34 C1325,33.729 1325.011,33.462 1325.031,33.197 C1325.041,33.086 1325.134,33 1325.245,33 L1344.753,33 C1344.866,33 1344.959,33.087 1344.969,33.199 C1344.989,33.463 1345,33.73 1345,34 C1345,34.267 1344.989,34.533 1344.969,34.796 C1344.96,34.911 1344.863,35 1344.748,35 L1325.249,35 C1325.135,35 1325.04,34.912 1325.031,34.799" id="Fill-1"></path>
        </g>
    </g>
</svg>