<?xml version="1.0" encoding="UTF-8"?>
<svg width="20px" height="20px" viewBox="0 0 20 20" version="1.1" xmlns="http://www.w3.org/2000/svg" xmlns:xlink="http://www.w3.org/1999/xlink">
    <!-- Generator: Sketch 53.2 (72643) - https://sketchapp.com -->
    <title>Group 2</title>
    <desc>Created with Sketch.</desc>
    <g id="Page-1" stroke="none" stroke-width="1" fill="none" fill-rule="evenodd">
        <g id="Exchange-Dark" transform="translate(-20.000000, -120.000000)" fill="#999">
            <g id="Group-2" transform="translate(20.000000, 120.000000)">
                <path d="M3.25581395,1.86046512 C2.48635659,1.86046512 1.86046512,2.48635659 1.86046512,3.25581395 L1.86046512,16.744186 C1.86046512,17.5136434 2.48635659,18.1395349 3.25581395,18.1395349 L16.744186,18.1395349 C17.5136434,18.1395349 18.1395349,17.5136434 18.1395349,16.744186 L18.1395349,3.25581395 C18.1395349,2.48635659 17.5136434,1.86046512 16.744186,1.86046512 L3.25581395,1.86046512 Z M16.744186,20 L3.25581395,20 C1.46062016,20 0,18.5393798 0,16.744186 L0,3.25581395 C0,1.46062016 1.46062016,0 3.25581395,0 L16.744186,0 C18.5393798,0 20,1.46062016 20,3.25581395 L20,16.744186 C20,18.5393798 18.5393798,20 16.744186,20 L16.744186,20 Z" id="Fill-1"></path>
                <path d="M5.89147287,15.0387597 C5.37782946,15.0387597 4.96124031,14.6221705 4.96124031,14.1085271 L4.96124031,5.73643411 C4.96124031,5.2227907 5.37782946,4.80620155 5.89147287,4.80620155 C6.40511628,4.80620155 6.82170543,5.2227907 6.82170543,5.73643411 L6.82170543,14.1085271 C6.82170543,14.6221705 6.40511628,15.0387597 5.89147287,15.0387597" id="Fill-3"></path>
                <path d="M9.92248062,15.0387597 C9.40883721,15.0387597 8.99224806,14.6221705 8.99224806,14.1085271 L8.99224806,8.68217054 C8.99224806,8.16852713 9.40883721,7.75193798 9.92248062,7.75193798 C10.436124,7.75193798 10.8527132,8.16852713 10.8527132,8.68217054 L10.8527132,14.1085271 C10.8527132,14.6221705 10.436124,15.0387597 9.92248062,15.0387597" id="Fill-5"></path>
                <path d="M13.9534884,15.0387597 C13.439845,15.0387597 13.0232558,14.6221705 13.0232558,14.1085271 L13.0232558,11.7829457 C13.0232558,11.2693023 13.439845,10.8527132 13.9534884,10.8527132 C14.4671318,10.8527132 14.8837209,11.2693023 14.8837209,11.7829457 L14.8837209,14.1085271 C14.8837209,14.6221705 14.4671318,15.0387597 13.9534884,15.0387597" id="Fill-7"></path>
            </g>
        </g>
    </g>
</svg>