<?xml version="1.0" encoding="UTF-8"?>
<svg width="20px" height="20px" viewBox="0 0 20 20" version="1.1" xmlns="http://www.w3.org/2000/svg" xmlns:xlink="http://www.w3.org/1999/xlink">
    <!-- Generator: Sketch 53.2 (72643) - https://sketchapp.com -->
    <title>Group 6</title>
    <desc>Created with Sketch.</desc>
    <g id="Page-1" stroke="none" stroke-width="1" fill="none" fill-rule="evenodd">
        <g id="Exchange-Dark" transform="translate(-1119.000000, -24.000000)" fill="#fff">
            <g id="Group-6" transform="translate(1119.000000, 24.000000)">
                <g id="Group-3">
                    <path d="M3.39238845,8.29391257 C3.39238845,4.80357403 6.26312008,1.96392746 9.79166667,1.96392746 C13.3202133,1.96392746 16.1909449,4.80357403 16.1909449,8.29391257 L16.1909449,14.9289572 L3.39238845,14.9289572 L3.39238845,8.29391257 Z M18.503937,14.9289572 L18.0413386,14.9289572 L18.0413386,8.29391257 C18.0413386,3.7942846 14.3405512,0.133570312 9.79166667,0.133570312 C5.24278215,0.133570312 1.54199475,3.7942846 1.54199475,8.29391257 L1.54199475,14.9289572 L1.07939633,14.9289572 C0.483261155,14.9289572 0,15.4069855 0,15.9966656 C0,16.5863456 0.483261155,17.0643739 1.07939633,17.0643739 L18.503937,17.0643739 C19.1000722,17.0643739 19.5833333,16.5863456 19.5833333,15.9966656 C19.5833333,15.4069855 19.1000722,14.9289572 18.503937,14.9289572 L18.503937,14.9289572 Z" id="Fill-1"></path>
                </g>
                <path d="M7.91666667,18.0260387 C7.91666667,19.1162502 8.84938272,20 10,20 C11.1506173,20 12.0833333,19.1162502 12.0833333,18.0260387 L12.0833333,17.9166667 L7.91666667,17.9166667 L7.91666667,18.0260387 Z" id="Fill-4"></path>
            </g>
        </g>
    </g>
</svg>