<?xml version="1.0" encoding="UTF-8"?>
<svg width="20px" height="18px" viewBox="0 0 20 18" version="1.1" xmlns="http://www.w3.org/2000/svg" xmlns:xlink="http://www.w3.org/1999/xlink">
    <!-- Generator: Sketch 53.2 (72643) - https://sketchapp.com -->
    <title>Fill 1</title>
    <desc>Created with Sketch.</desc>
    <g id="Page-1" stroke="none" stroke-width="1" fill="none" fill-rule="evenodd">
        <g id="Exchange-Dark" transform="translate(-20.000000, -340.000000)" fill="#999">
            <path d="M38,347 L38,344.777 C38,344.226 37.553,343.777 37,343.777 L29.021,343.777 C28.232,343.777 27.475,343.467 26.913,342.912 L26.281,342.288 C26.095,342.104 25.842,342 25.579,342 L22,342 L22,347 L30,347 C30.553,347 31,347.447 31,348 C31,348.553 30.553,349 30,349 L22,349 L22,355 C22,355.553 22.447,356 23,356 L37,356 C37.553,356 38,355.553 38,355 L38,349 L34,349 C33.447,349 33,348.553 33,348 C33,347.447 33.447,347 34,347 L38,347 Z M20,355 L20,342 C20,340.896 20.896,340 22,340 L25.579,340 C26.368,340 27.125,340.311 27.687,340.865 L28.318,341.489 C28.506,341.674 28.758,341.777 29.021,341.777 L37,341.777 C38.657,341.777 40,343.121 40,344.777 L40,355 C40,356.657 38.657,358 37,358 L23,358 C21.343,358 20,356.657 20,355 L20,355 Z" id="Fill-1"></path>
        </g>
    </g>
</svg>