<?xml version="1.0" encoding="UTF-8"?>
<svg width="22px" height="22px" viewBox="0 0 22 22" version="1.1" xmlns="http://www.w3.org/2000/svg" xmlns:xlink="http://www.w3.org/1999/xlink">
    <!-- Generator: Sketch 53.2 (72643) - https://sketchapp.com -->
    <title>Fill 1</title>
    <desc>Created with Sketch.</desc>
    <g id="Page-1" stroke="none" stroke-width="1" fill="none" fill-rule="evenodd">
        <g id="Exchange-Dark" transform="translate(-1058.000000, -23.000000)" fill="#4c4c4c" stroke="#4c4c4c" stroke-width="0.3">
            <path d="M1074.36532,30.88 C1075.48596,32.95 1075.47745,35.0693617 1074.38511,37.086383 C1075.10979,37.8146809 1075.79489,38.5031915 1076.47532,39.1874468 C1078.78723,36.3046809 1078.61447,31.3640426 1076.44085,28.7921277 C1075.76809,29.4689362 1075.09298,30.1480851 1074.36532,30.88 M1072.10213,28.6223404 C1072.82149,27.9053191 1073.51064,27.2185106 1074.19681,26.5348936 C1071.46106,24.2797872 1066.49574,24.3008511 1063.79787,26.5404255 C1064.48511,27.2240426 1065.17511,27.9108511 1065.89234,28.6244681 C1067.94021,27.5131915 1070.06043,27.5155319 1072.10213,28.6223404 M1072.16426,39.3412766 C1070.03702,40.4908511 1067.92085,40.4759574 1065.90383,39.3840426 C1065.17723,40.1093617 1064.49064,40.7953191 1063.8083,41.4765957 C1066.72957,43.856383 1071.81468,43.5734043 1074.21894,41.4146809 C1073.54532,40.7348936 1072.87064,40.0540426 1072.16426,39.3412766 M1061.52128,39.2319149 C1062.23255,38.5197872 1062.91957,37.8321277 1063.63255,37.1180851 C1062.50277,35.0478723 1062.52,32.9144681 1063.59149,30.9440426 C1062.84468,30.192766 1062.16191,29.5057447 1061.48489,28.8246809 C1059.30447,31.4508511 1059.29872,36.4019149 1061.52128,39.2319149 M1063.55723,34.1040426 C1063.74404,34.767234 1063.95617,35.5431915 1064.18362,36.3146809 C1064.2617,36.5797872 1064.40617,36.71 1064.74426,36.6995745 C1065.6683,36.6704255 1066.28745,37.3361702 1066.32447,38.2655319 C1066.33149,38.4385106 1066.45574,38.6914894 1066.59809,38.7617021 C1068.1917,39.5485106 1069.80298,39.5482979 1071.39872,38.7644681 C1071.53532,38.697234 1071.67106,38.4774468 1071.67809,38.3225532 C1071.72426,37.2940426 1072.29681,36.7142553 1073.30745,36.6753191 C1073.46468,36.6693617 1073.69213,36.5453191 1073.75809,36.4121277 C1074.54426,34.8185106 1074.55255,33.207234 1073.76787,31.6112766 C1073.69681,31.466383 1073.45043,31.3312766 1073.28021,31.3244681 C1072.34255,31.2868085 1071.67426,30.6755319 1071.69766,29.7587234 C1071.70596,29.4351064 1071.59362,29.3019149 1071.33191,29.1823404 C1069.77489,28.4706383 1068.22383,28.4695745 1066.66702,29.1821277 C1066.4083,29.3004255 1066.28596,29.4280851 1066.29936,29.7568085 C1066.3317,30.5425532 1065.8017,31.2757447 1065.05106,31.2548936 C1064.23468,31.2319149 1064.10426,31.7397872 1063.94766,32.27 C1063.7866,32.8146809 1063.70638,33.3831915 1063.55723,34.1040426 M1067.88894,24 L1070.11106,24 C1070.14,24.0223404 1070.1666,24.0602128 1070.19787,24.0642553 C1071.8417,24.2751064 1073.34511,24.8489362 1074.71979,25.777234 C1074.82106,25.8457447 1075.05681,25.7974468 1075.18787,25.7259574 C1075.86617,25.3570213 1076.57638,25.4180851 1077.07787,25.9178723 C1077.57745,26.4157447 1077.67298,27.1519149 1077.25383,27.7961702 C1077.08064,28.0625532 1077.17596,28.2004255 1077.2934,28.4257447 C1077.71915,29.2425532 1078.16851,30.0551064 1078.49702,30.9121277 C1078.75128,31.5751064 1078.83851,32.3017021 1079,33 L1079,35 C1078.97532,35.0670213 1078.9366,35.1321277 1078.9283,35.2010638 C1078.72809,36.8474468 1078.1434,38.3451064 1077.22043,39.7204255 C1077.15213,39.8221277 1077.20106,40.057234 1077.27234,40.1885106 C1077.64043,40.8651064 1077.57915,41.5757447 1077.08064,42.0780851 C1076.58191,42.5804255 1075.8466,42.677234 1075.20447,42.2585106 C1074.9417,42.0870213 1074.80255,42.1689362 1074.57596,42.292766 C1073.84851,42.6902128 1073.12617,43.1187234 1072.35383,43.406383 C1071.6,43.6868085 1070.78702,43.8087234 1070,44 L1068,44 C1066.23255,43.7038298 1064.55383,43.1765957 1063.14,42.1010638 C1063.06532,42.1114894 1063.04447,42.1087234 1063.03085,42.1170213 C1062.17915,42.6425532 1061.51979,42.6423404 1060.95489,42.1157447 C1060.40936,41.6070213 1060.36702,40.952766 1060.78383,40.0953191 C1060.84255,39.9748936 1060.78426,39.7642553 1060.71979,39.6229787 C1060.28468,38.6680851 1059.79681,37.7359574 1059.40149,36.7655319 C1059.19,36.2457447 1059.12894,35.6644681 1059,35.1112766 L1059,32.8887234 C1059.05255,32.6597872 1059.11404,32.4325532 1059.15638,32.2014894 C1059.43255,30.6919149 1060.04213,29.322766 1060.91702,28.0908511 C1060.3583,27.2187234 1060.34809,26.5544681 1060.8617,25.9791489 C1061.39298,25.3842553 1062.07468,25.3555319 1063.13043,25.8959574 C1064.19553,25.1329787 1065.37277,24.58 1066.66085,24.2723404 C1067.06851,24.1748936 1067.47936,24.0904255 1067.88894,24" id="Fill-1"></path>
        </g>
    </g>
</svg>