<?xml version="1.0" encoding="UTF-8"?>
<svg xmlns="http://www.w3.org/2000/svg" xmlns:xlink="http://www.w3.org/1999/xlink" width="20pt" height="20pt" viewBox="0 0 20 20" version="1.1">
<g id="surface1">
<path style=" stroke:none;fill-rule:nonzero;fill:#6E7793;fill-opacity:1;" d="M 18.828125 10.726562 L 18.828125 9.960938 C 18.828125 9.039062 18.394531 8.171875 17.65625 7.617188 L 17.65625 6.445312 C 17.65625 4.832031 16.34375 3.515625 14.726562 3.515625 L 14.140625 3.515625 L 14.140625 1.757812 C 14.140625 0.789062 13.351562 0 12.382812 0 L 5.273438 0 C 4.304688 0 3.515625 0.789062 3.515625 1.757812 L 3.515625 3.515625 L 2.34375 3.515625 C 1.050781 3.515625 0 4.566406 0 5.859375 L 0 17.070312 C 0 18.6875 1.3125 20 2.929688 20 L 15.898438 20 C 17.515625 20 18.828125 18.6875 18.828125 17.070312 L 18.828125 16.382812 C 19.53125 16.132812 20 15.472656 20 14.726562 L 20 12.382812 C 20 11.636719 19.53125 10.976562 18.828125 10.726562 Z M 14.074219 4.816406 L 14.628906 4.816406 C 15.546875 4.816406 16.296875 5.5625 16.296875 6.480469 L 16.296875 7.039062 L 14.074219 7.039062 Z M 9.257812 1.109375 L 12.359375 1.109375 C 12.691406 1.109375 12.964844 1.375 12.964844 1.703125 L 12.964844 7.039062 L 9.257812 7.039062 Z M 7.039062 1.109375 L 8.148438 1.109375 L 8.148438 7.039062 L 7.039062 7.039062 Z M 4.816406 1.703125 C 4.816406 1.375 5.0625 1.109375 5.371094 1.109375 L 5.925781 1.109375 L 5.925781 7.039062 L 4.816406 7.039062 Z M 2.222656 4.816406 L 3.332031 4.816406 L 3.332031 7.039062 L 2.222656 7.039062 C 1.609375 7.035156 1.113281 6.539062 1.109375 5.925781 C 1.113281 5.3125 1.609375 4.816406 2.222656 4.816406 Z M 17.777344 17.101562 C 17.777344 18.089844 16.980469 18.890625 16 18.890625 L 2.886719 18.890625 C 1.910156 18.890625 1.109375 18.089844 1.109375 17.101562 L 1.109375 7.777344 C 1.472656 7.988281 1.878906 8.097656 2.296875 8.097656 L 16 8.097656 C 16.980469 8.097656 17.777344 8.898438 17.777344 9.882812 L 17.777344 10.558594 L 16 10.558594 C 14.367188 10.558594 13.039062 11.894531 13.039062 13.53125 C 13.039062 15.171875 14.367188 16.507812 16 16.507812 L 17.777344 16.507812 Z M 18.890625 14.628906 C 18.890625 14.9375 18.617188 15.183594 18.289062 15.183594 L 15.878906 15.183594 C 14.882812 15.183594 14.074219 14.4375 14.074219 13.519531 C 14.074219 12.597656 14.882812 11.851562 15.878906 11.851562 L 18.289062 11.851562 C 18.621094 11.851562 18.890625 12.101562 18.890625 12.40625 Z M 18.890625 14.628906 "/>
<path style=" stroke:none;fill-rule:nonzero;fill:#6E7793;fill-opacity:1;" d="M 17.191406 13.507812 C 17.191406 13.800781 16.957031 14.035156 16.667969 14.035156 C 16.375 14.035156 16.140625 13.800781 16.140625 13.507812 C 16.140625 13.21875 16.375 12.984375 16.667969 12.984375 C 16.957031 12.984375 17.191406 13.21875 17.191406 13.507812 Z M 17.191406 13.507812 "/>
</g>
</svg>
