<?xml version="1.0" encoding="UTF-8"?>
<svg width="100px" height="101px" viewBox="0 0 100 101" version="1.1" xmlns="http://www.w3.org/2000/svg" xmlns:xlink="http://www.w3.org/1999/xlink">
    <!-- Generator: Sketch 45 (43475) - http://www.bohemiancoding.com/sketch -->
    <title>Page 1</title>
    <desc>Created with Sketch.</desc>
    <defs>
        <polygon id="path-1" points="0 99.8871646 0 0.0677806745 99.9321429 0.0677806745 99.9321429 99.8871646"></polygon>
    </defs>
    <g id="Page-1" stroke="none" stroke-width="1" fill="none" fill-rule="evenodd" opacity="0.800000012">
        <g id="Desktop-HD" transform="translate(-91.000000, -60.000000)">
            <g id="Page-1" transform="translate(91.000000, 60.000000)">
                <path d="M45.3239683,69.0345773 C47.2346825,69.9446617 49.2616667,70.3917763 51.27,70.3917763 C54.3311111,70.3913799 57.3485714,69.3532654 59.8442063,67.3325293 C60.1739683,67.0657667 60.5065079,66.7787889 60.8326984,66.4803161 C61.947381,65.4596422 62.0227778,63.7298477 61.0013492,62.6164213 C59.9799206,61.5029949 58.2481746,61.4280794 57.1330952,62.4475642 C56.888254,62.6715178 56.6406349,62.8851657 56.3961905,63.0829584 C53.8819048,65.1191533 50.6239683,65.4988836 47.6799206,64.0972903 C44.6854762,62.6715178 42.8977778,59.8504941 42.8977778,56.5506455 L42.8977778,41.9706657 L59.2918254,41.9706657 C60.6152381,41.9706657 61.6874603,40.8992553 61.6874603,39.5777304 C61.6874603,38.255809 60.6152381,37.1843987 59.2918254,37.1843987 L42.8977778,37.1843987 L42.8977778,32.9510794 C42.8977778,31.4408784 41.6719841,30.2164661 40.1600794,30.2164661 C38.6481746,30.2164661 37.4219841,31.4408784 37.4219841,32.9510794 L37.4219841,37.1843987 L32.9398413,37.1843987 C31.6168254,37.1843987 30.5442063,38.255809 30.5442063,39.5777304 C30.5442063,40.8992553 31.6168254,41.9706657 32.9398413,41.9706657 L37.4219841,41.9706657 L37.4219841,56.5506455 C37.4219841,61.930687 40.4497619,66.7141792 45.3239683,69.0345773" id="Fill-1" fill="#FFFFFF"></path>
                <path d="M86.5643651,58.1738539 C86.8445238,56.8721478 85.8421429,55.6445645 84.5088095,55.6445645 L83.8774603,55.6445645 C82.9103968,55.6445645 82.0596032,56.308498 81.8524603,57.2522745 C78.7405556,71.4445965 66.2992857,82.2764239 51.3211111,82.8848645 C28.2528571,83.8222989 10.1445238,60.7035397 20.1318254,36.6378328 C23.1611905,29.338528 29.0004762,23.5145429 36.3103968,20.4937446 C52.8397619,13.664148 68.9175397,20.0410806 77.0742857,32.1599481 C77.7020635,33.0922297 78.9584127,33.3546321 79.9107937,32.7576865 L80.2822222,32.5250125 C81.3611905,31.8483949 81.6715079,30.4107311 80.9560317,29.3579506 C71.9857937,16.1573669 54.7957143,8.96072408 36.7913492,15.1759345 C26.6238889,18.6862599 18.6107937,26.5321703 14.9734921,36.6449676 C5.50880952,62.9621027 24.8996825,87.6984815 49.9659524,87.6984815 C67.9060317,87.6984815 82.9369841,75.0266664 86.5643651,58.1738539" id="Fill-3" fill="#FFFFFF"></path>
                <g id="Group-7" transform="translate(0.000000, 0.328598)">
                    <mask id="mask-2" fill="white">
                        <use xlink:href="#path-1"></use>
                    </mask>
                    <g id="Clip-6"></g>
                    <path d="M47.672381,0.119190929 C21.979127,1.27344429 1.18309524,22.0725983 0.0493650794,47.7380876 C-0.200634921,53.3975757 0.502539683,58.8616494 2.00690476,63.987216 C2.41444444,65.3761253 3.99103175,66.0543284 5.29936508,65.4332038 C5.31404762,65.4264653 5.32912698,65.4193305 5.34380952,65.4121957 C6.40333333,64.9099845 6.92992063,63.7160933 6.60055556,62.591172 C5.26563492,58.0316334 4.62515873,53.1791713 4.82833333,48.1495282 C5.7684127,24.8591371 24.6295238,5.9197897 47.942619,4.89792667 C73.7688095,3.76587049 95.1410317,24.4254993 95.1410317,49.9776245 C95.1410317,74.8590777 74.8755556,95.1013203 49.9660317,95.1013203 C46.6184127,95.1013203 43.3557143,94.7330849 40.2140476,94.0390267 C39.3660317,93.8519361 38.4870635,94.1749844 37.9481746,94.854773 C36.8350794,96.2587447 37.5644444,98.3611347 39.3156349,98.7428469 C43.3144444,99.614879 47.4902381,100.008086 51.7807143,99.8546878 C77.6830952,98.9291447 98.7739683,78.0301034 99.8854762,52.1636503 C101.143016,22.88557 76.9961905,-1.19797387 47.672381,0.119190929" id="Fill-5" fill="#FFFFFF" mask="url(#mask-2)"></path>
                </g>
            </g>
        </g>
    </g>
</svg>