<svg xmlns="http://www.w3.org/2000/svg" xmlns:xlink="http://www.w3.org/1999/xlink" viewBox="0 0 436.39 436.39"><defs><style>.cls-1{fill:url(#linear-gradient);}.cls-2{fill:url(#linear-gradient-2);}.cls-3{fill:url(#linear-gradient-3);}</style><linearGradient id="linear-gradient" x1="28.34" y1="110.13" x2="393.32" y2="328.33" gradientUnits="userSpaceOnUse"><stop offset="0" stop-color="#ff694d"/><stop offset="1" stop-color="#ffcc4d"/></linearGradient><linearGradient id="linear-gradient-2" x1="30.73" y1="106.13" x2="395.71" y2="324.32" xlink:href="#linear-gradient"/><linearGradient id="linear-gradient-3" x1="33.78" y1="101.69" x2="398.76" y2="319.89" xlink:href="#linear-gradient"/></defs><title>TomoChain logo11</title><g id="Layer_2" data-name="Layer 2"><g id="Layer_4" data-name="Layer 4"><path class="cls-1" d="M197.92,300.07a60.26,60.26,0,0,0,26,5.93,59.31,59.31,0,0,0,37.44-13.37c1.44-1.17,2.89-2.42,4.32-3.72a12,12,0,1,0-16.16-17.63c-1.07,1-2.15,1.91-3.21,2.77a35.19,35.19,0,0,1-38.07,4.44,35.83,35.83,0,0,1-20.88-33V181.75h71.59a10.46,10.46,0,0,0,0-20.92H187.33V142.32a12,12,0,0,0-23.91,0v18.51H143.84a10.46,10.46,0,1,0,0,20.92h19.58V245.5A60,60,0,0,0,197.92,300.07Z"/><path class="cls-2" d="M378,252.59a9.16,9.16,0,0,0-9-11.06h-2.76a9,9,0,0,0-8.84,7C343.85,310.61,289.52,358,224.11,360.62c-100.73,4.1-179.81-97-136.2-202.18a130.69,130.69,0,0,1,70.65-70.58c72.18-29.85,142.39-2,178,51A9.1,9.1,0,0,0,349,141.48l1.62-1a9.84,9.84,0,0,0,2.94-13.85c-39.17-57.71-114.23-89.17-192.86-62a154.55,154.55,0,0,0-95.27,93.86c-41.33,115,43.34,223.2,152.8,223.2C296.54,381.67,362.17,326.27,378,252.59Z"/><path class="cls-3" d="M208.18.23C96,5.27,5.17,96.2.22,208.4a217.87,217.87,0,0,0,8.54,71,10.35,10.35,0,0,0,14.38,6.32l.2-.09a10.38,10.38,0,0,0,5.48-12.33,196.44,196.44,0,0,1-7.74-63.14C25.19,108.38,107.55,25.58,209.36,21.12c112.78-4.95,206.11,85.37,206.11,197.08,0,108.77-88.5,197.27-197.28,197.27a196.66,196.66,0,0,1-42.58-4.65,9.94,9.94,0,0,0-9.9,3.57,10.64,10.64,0,0,0,6,17,218.35,218.35,0,0,0,54.43,4.86c113.11-4.05,205.21-95.42,210.06-208.5C441.68,99.76,336.23-5.53,208.18.23Z"/></g></g></svg>