<svg xmlns="http://www.w3.org/2000/svg" width="12" height="12"><path fill="#6E7793" fill-rule="evenodd" d="M10.2 7.481l.409-3.315-2.296.452a.934.934 0 0 1-.984-.435l-1.331-2.47-1.33 2.47a.933.933 0 0 1-.983.435l-2.293-.452.408 3.315a1.331 1.331 0 0 0 1.323 1.186h.208a.666.666 0 1 1 0 1.333H2.133a.133.133 0 0 0-.133.134v.4c0 .073.06.132.133.132h7.73c.074 0 .134-.059.134-.133v-.4A.134.134 0 0 0 9.863 10h-1.2a.667.667 0 0 1 0-1.333h.21c.68 0 1.252-.51 1.327-1.186M5.333 8.665h1.334a.667.667 0 0 1 0 1.333H5.333a.666.666 0 1 1 0-1.333M11.33 10v.666c0 .737-.596 1.334-1.332 1.334H2a1.333 1.333 0 0 1-1.333-1.334V10c0-.376.157-.717.408-.96a2.66 2.66 0 0 1-.602-1.412L.006 3.77a.935.935 0 0 1 1.106-1.018l2.557.503L5.2.453a.932.932 0 0 1 1.599 0l1.53 2.802 2.553-.503a.935.935 0 0 1 1.114 1.018l-.472 3.858a2.655 2.655 0 0 1-.601 1.412c.251.243.407.584.407.96"/></svg>