<?xml version="1.0" encoding="UTF-8"?>
<svg width="58px" height="62px" viewBox="0 0 58 62" version="1.1" xmlns="http://www.w3.org/2000/svg" xmlns:xlink="http://www.w3.org/1999/xlink">
    <!-- Generator: Sketch 59.1 (86144) - https://sketch.com -->
    <title>file (3)</title>
    <desc>Created with Sketch.</desc>
    <g id="Draf" stroke="none" stroke-width="1" fill="none" fill-rule="evenodd">
        <g id="Market-Dark-Copy-2" transform="translate(-737.000000, -473.000000)" fill-rule="nonzero" stroke-width="0.5">
            <g id="file-(3)" transform="translate(737.000000, 474.000000)">
                <path d="M36.5,22 L11.5,22 C10.948,22 10.5,22.448 10.5,23 C10.5,23.552 10.948,24 11.5,24 L36.5,24 C37.052,24 37.5,23.552 37.5,23 C37.5,22.448 37.052,22 36.5,22 Z" id="Path" stroke="#9CA4BA" fill="#9CA4BA"></path>
                <path d="M11.5,16 L21.5,16 C22.052,16 22.5,15.552 22.5,15 C22.5,14.448 22.052,14 21.5,14 L11.5,14 C10.948,14 10.5,14.448 10.5,15 C10.5,15.552 10.948,16 11.5,16 Z" id="Path" stroke="#9CA4BA" fill="#9CA4BA"></path>
                <path d="M36.5,30 L11.5,30 C10.948,30 10.5,30.448 10.5,31 C10.5,31.552 10.948,32 11.5,32 L36.5,32 C37.052,32 37.5,31.552 37.5,31 C37.5,30.448 37.052,30 36.5,30 Z" id="Path" stroke="#9CA4BA" fill="#9CA4BA"></path>
                <path d="M31.5,38 L11.5,38 C10.948,38 10.5,38.448 10.5,39 C10.5,39.552 10.948,40 11.5,40 L31.5,40 C32.052,40 32.5,39.552 32.5,39 C32.5,38.448 32.052,38 31.5,38 Z" id="Path" stroke="#9CA4BA" fill="#9CA4BA"></path>
                <path d="M28.5,48 C29.052,48 29.5,47.552 29.5,47 C29.5,46.448 29.052,46 28.5,46 L11.5,46 C10.948,46 10.5,46.448 10.5,47 C10.5,47.552 10.948,48 11.5,48 L28.5,48 Z" id="Path" stroke="#9CA4BA" fill="#9CA4BA"></path>
                <path d="M2.5,2 L31.5,2 L31.5,16 L45.5,16 L45.5,31 L47.5,31 L47.5,14.586 L32.914,0 L0.5,0 L0.5,60 L32.5,60 L32.5,58 L2.5,58 L2.5,2 Z M33.5,3.414 L44.086,14 L33.5,14 L33.5,3.414 Z" id="Shape" stroke="#9CA4BA" fill="#9CA4BA"></path>
                <path d="M53.5,42 L53.5,41 C53.5,37.14 50.36,34 46.5,34 C42.64,34 39.5,37.14 39.5,41 L39.5,42 L35.5,42 L35.5,60 L57.5,60 L57.5,42 L53.5,42 Z M41.5,41 C41.5,38.243 43.743,36 46.5,36 C49.257,36 51.5,38.243 51.5,41 L51.5,42 L41.5,42 L41.5,41 Z M55.5,58 L37.5,58 L37.5,44 L39.5,44 L53.5,44 L55.5,44 L55.5,58 Z" id="Shape" stroke="#FF9A4D" fill="#FF9A4D"></path>
                <path d="M46.5,46 C44.294,46 42.5,47.794 42.5,50 C42.5,51.858 43.78,53.411 45.5,53.858 L45.5,55 C45.5,55.552 45.948,56 46.5,56 C47.052,56 47.5,55.552 47.5,55 L47.5,53.858 C49.22,53.411 50.5,51.858 50.5,50 C50.5,47.794 48.706,46 46.5,46 Z M46.5,52 C45.397,52 44.5,51.103 44.5,50 C44.5,48.897 45.397,48 46.5,48 C47.603,48 48.5,48.897 48.5,50 C48.5,51.103 47.603,52 46.5,52 Z" id="Shape" stroke="#FF9A4D" fill="#FF9A4D"></path>
            </g>
        </g>
    </g>
</svg>