<?xml version="1.0" encoding="UTF-8"?>
<svg width="62px" height="62px" viewBox="0 0 62 62" version="1.1" xmlns="http://www.w3.org/2000/svg" xmlns:xlink="http://www.w3.org/1999/xlink">
    <!-- Generator: Sketch 59.1 (86144) - https://sketch.com -->
    <title>file (2)</title>
    <desc>Created with Sketch.</desc>
    <g id="Draf" stroke="none" stroke-width="1" fill="none" fill-rule="evenodd">
        <g id="Market-Dark-Copy" transform="translate(-736.000000, -472.000000)" fill-rule="nonzero" stroke-width="0.5">
            <g id="file-(2)" transform="translate(737.000000, 473.000000)">
                <path d="M36,22.001 L11,22.001 C10.448,22.001 10,22.449 10,23.001 C10,23.553 10.448,24.001 11,24.001 L36,24.001 C36.552,24.001 37,23.553 37,23.001 C37,22.449 36.552,22.001 36,22.001 Z" id="Path" stroke="#9CA4BA" fill="#9CA4BA"></path>
                <path d="M11,16.001 L21,16.001 C21.552,16.001 22,15.553 22,15.001 C22,14.449 21.552,14.001 21,14.001 L11,14.001 C10.448,14.001 10,14.449 10,15.001 C10,15.553 10.448,16.001 11,16.001 Z" id="Path" stroke="#9CA4BA" fill="#9CA4BA"></path>
                <path d="M37,31.001 C37,30.449 36.552,30.001 36,30.001 L11,30.001 C10.448,30.001 10,30.449 10,31.001 C10,31.553 10.448,32.001 11,32.001 L36,32.001 C36.552,32.001 37,31.553 37,31.001 Z" id="Path" stroke="#9CA4BA" fill="#9CA4BA"></path>
                <path d="M29,39.001 C29,38.449 28.552,38.001 28,38.001 L11,38.001 C10.448,38.001 10,38.449 10,39.001 C10,39.553 10.448,40.001 11,40.001 L28,40.001 C28.552,40.001 29,39.553 29,39.001 Z" id="Path" stroke="#9CA4BA" fill="#9CA4BA"></path>
                <path d="M11,46.001 C10.448,46.001 10,46.449 10,47.001 C10,47.553 10.448,48.001 11,48.001 L25,48.001 C25.552,48.001 26,47.553 26,47.001 C26,46.449 25.552,46.001 25,46.001 L11,46.001 Z" id="Path" stroke="#9CA4BA" fill="#9CA4BA"></path>
                <path d="M2,2.001 L31,2.001 L31,16.001 L45,16.001 L45,33.001 L47,33.001 L47,14.587 L32.414,0.001 L0,0.001 L0,60.001 L30,60.001 L30,58.001 L2,58.001 L2,2.001 Z M33,3.415 L43.586,14.001 L33,14.001 L33,3.415 Z" id="Shape" stroke="#9CA4BA" fill="#9CA4BA"></path>
                <path d="M59.693,56.636 L47.849,36.329 C47.443,35.634 46.721,35.219 45.915,35.219 C45.11,35.219 44.388,35.634 43.982,36.329 L32.137,56.636 C31.728,57.337 31.725,58.175 32.129,58.878 C32.533,59.581 33.258,60.001 34.069,60.001 L57.76,60.001 C58.571,60.001 59.296,59.581 59.699,58.878 C60.104,58.175 60.102,57.336 59.693,56.636 Z M57.966,57.882 C57.936,57.937 57.874,58.001 57.761,58.001 L34.07,58.001 C33.956,58.001 33.895,57.936 33.864,57.882 C33.833,57.827 33.808,57.742 33.865,57.644 L45.71,37.337 C45.767,37.239 45.853,37.219 45.915,37.219 C45.978,37.219 46.063,37.24 46.121,37.337 L57.966,57.643 C58.022,57.742 57.998,57.827 57.966,57.882 Z" id="Shape" stroke="#FF9A4D" fill="#FF9A4D"></path>
                <path d="M46,42.001 C45.448,42.001 45,42.449 45,43.001 L45,51.001 C45,51.553 45.448,52.001 46,52.001 C46.552,52.001 47,51.553 47,51.001 L47,43.001 C47,42.448 46.552,42.001 46,42.001 Z" id="Path" stroke="#FF9A4D" fill="#FF9A4D"></path>
                <path d="M45.29,54.291 C45.11,54.481 45,54.741 45,55.001 C45,55.261 45.11,55.521 45.29,55.711 C45.48,55.891 45.74,56.001 46,56.001 C46.27,56.001 46.52,55.891 46.71,55.711 C46.89,55.521 47,55.261 47,55.001 C47,54.741 46.89,54.481 46.71,54.291 C46.33,53.921 45.67,53.921 45.29,54.291 Z" id="Path" stroke="#FF9A4D" fill="#FF9A4D"></path>
            </g>
        </g>
    </g>
</svg>